<?xml version="1.0" encoding="UTF-8" standalone="no"?>
<svg
   xmlns:dc="http://purl.org/dc/elements/1.1/"
   xmlns:cc="http://creativecommons.org/ns#"
   xmlns:rdf="http://www.w3.org/1999/02/22-rdf-syntax-ns#"
   xmlns:svg="http://www.w3.org/2000/svg"
   xmlns="http://www.w3.org/2000/svg"
   viewBox="0 0 550 100"
   height="100"
   width="550"
   xml:space="preserve"
   id="svg2"
   version="1.1"><metadata
     id="metadata8"><rdf:RDF><cc:Work
         rdf:about=""><dc:format>image/svg+xml</dc:format><dc:type
           rdf:resource="http://purl.org/dc/dcmitype/StillImage" /><dc:title></dc:title></cc:Work></rdf:RDF></metadata><defs
     id="defs6" /><g
     transform="matrix(1.3333333,0,0,1.3333333,0,2.5e-6)"
     id="g10"><g
       style="stroke-width:0.9305436;fill:#4d4d4d"
       transform="matrix(1.0746407,0,0,1.0746407,-13.251233,-3.3358897)"
       id="g5171"><path
         id="path14"
         style="fill:#4d4d4d;fill-opacity:1;fill-rule:nonzero;stroke:none;stroke-width:0.9305436"
         d="m 30.969,68.652 c -1.035,-0.976 -1.051,-0.984 -2.5,-1.117 -2.215,-0.203 -2.856,-1.137 -2.848,-4.164 0.016,-4.519 1.375,-6.824 5.184,-8.773 2.363,-1.211 2.324,-3.457 -0.117,-7.11 -2.489,-3.722 -3.891,-3.933 -5.352,-0.804 -2.465,5.273 -2.691,5.472 -4.215,3.668 -1.426,-1.688 -1.738,-3.051 -1.172,-5.098 0.715,-2.594 2,-3.149 5.883,-2.547 1.289,0.203 1.289,0.203 2.18,-0.801 1.898,-2.129 2.769,-2.047 3.109,0.293 0.293,2.008 1.402,2.41 1.234,0.446 -0.121,-1.426 -0.054,-1.602 0.606,-1.602 1.586,0 3.289,5.547 2.508,8.168 -0.278,0.93 -0.121,1.855 0.363,2.156 0.09,0.055 0.523,-1.14 0.961,-2.656 2.109,-7.34 3.859,-10.492 5.824,-10.492 2.832,0 1.528,4.629 -3.492,12.406 -1.215,1.883 -1.187,1.781 -0.508,1.781 0.387,0 0.672,-0.172 1.055,-0.648 1.312,-1.629 1.933,-2.235 2.871,-2.797 3.469,-2.094 7.344,-1.957 4.66,0.164 -1.574,1.246 -0.637,1.883 1.055,0.715 1.765,-1.211 2.367,-0.707 2.226,1.859 -0.089,1.578 -0.089,1.578 1.364,2.899 1.902,1.726 2.453,2.652 2.308,3.871 -0.105,0.906 -0.105,0.906 4.203,0.906 5.864,0 5.207,1.145 5.207,-9.066 0,-8.168 0,-8.168 0.641,-8.168 0.641,0 0.641,0 0.641,8.3 0,11.227 0.613,10.282 -6.739,10.364 -5.062,0.05 -5.062,0.05 -5.636,0.64 -1.668,1.711 -5.785,1.797 -5.516,0.11 0.113,-0.715 0.113,-0.715 -1.262,-0.715 -1.379,0 -1.379,0 -1.379,-0.735 0,-0.73 0,-0.73 1.727,-0.73 1.723,0 1.723,0 2.324,-1.422 1.703,-4.031 0.86,-4.926 -3.957,-4.191 -4.422,0.672 -5.937,1.965 -5.281,4.511 1.023,3.981 0.258,6.665 -2.695,9.422 -2.465,2.309 -3.797,2.539 -5.465,0.957 z m 1.793,-5.972 c 0.379,-0.559 0.871,-1.375 1.097,-1.817 0.407,-0.804 0.407,-0.804 0.844,-0.093 0.438,0.71 0.438,0.71 0.445,-0.754 0.012,-1.629 -0.168,-1.77 1.731,1.351 0.605,0.996 0.781,0.875 0.414,-0.285 -0.66,-2.074 -0.633,-2.211 0.293,-1.437 0.816,0.683 1.191,0.789 1.082,0.304 -0.125,-0.531 -1.719,-3.781 -2.227,-4.539 -0.609,-0.898 -0.031,-2.43 3.403,-9.008 2.234,-4.277 3.207,-6.937 2.66,-7.273 -0.496,-0.305 -4.133,7.457 -5.699,12.172 -1.067,3.199 -1.067,3.199 -2.352,3.418 -2.863,0.48 -5.426,1.574 -4.297,1.828 1.766,0.402 1.739,0.312 0.285,1.004 -2.027,0.969 -1.8,1.144 0.711,0.539 2.137,-0.512 2.2,-0.477 1.067,0.562 -1.008,0.926 -1.008,0.926 -0.25,0.825 0.754,-0.102 0.754,-0.102 0.226,1.429 -1.121,3.254 -0.902,3.942 0.567,1.774 z m 12.656,-10.2 c 1.852,-0.097 2.48,-0.062 3.289,0.18 1.324,0.399 1.574,0.145 0.676,-0.676 -1.121,-1.031 -2.766,-1.308 -4.613,-0.785 -1.567,0.446 -5.383,1.68 -5.477,1.774 -0.047,0.047 0.797,-0.016 1.871,-0.141 1.078,-0.125 2.992,-0.281 4.254,-0.352 z m -11.559,-3.3 c -0.414,-0.895 -0.996,-2.223 -1.3,-2.946 -0.961,-2.312 -2.379,-3.543 -4.082,-3.543 -0.989,0 -1.079,0.258 -0.247,0.696 1.133,0.593 3.332,3.175 5.543,6.504 0.954,1.437 0.977,1.23 0.086,-0.711 z m -15.57,11.34 c -1.504,-0.754 -1.469,-0.536 -1.469,-9.696 0,-8.133 0,-8.133 0.641,-8.133 0.641,0 0.641,0 0.641,7.86 0,9.699 -0.309,8.824 3.132,8.824 2.368,0 2.368,0 2.368,0.73 0,0.852 -3.848,1.149 -5.313,0.415 z m 31.5,-15.473 c 0.035,-0.399 -0.035,-0.832 -0.16,-0.988 -0.184,-0.219 -0.184,-0.551 0.004,-1.641 0.187,-1.102 0.187,-1.422 0.004,-1.648 -0.274,-0.325 -0.137,-0.352 0.422,-0.082 0.218,0.105 0.089,-0.071 -0.289,-0.387 -0.375,-0.317 -0.688,-0.735 -0.688,-0.922 0,-0.434 -0.547,-0.797 -1.914,-1.266 -1.641,-0.566 -1.887,-0.949 -1.309,-2.054 0.293,-0.559 0.219,-0.7 -0.371,-0.7 -0.543,0 -0.984,0.645 -1,1.461 -0.015,0.782 -0.32,0.258 -0.34,-0.586 -0.035,-1.281 0.797,-1.632 2.918,-1.238 1.926,0.356 3.254,0.445 3.942,0.258 0.574,-0.152 0.437,-1.887 -0.395,-5.027 -0.812,-3.079 -0.918,-5.637 -0.355,-8.754 0.265,-1.477 0.269,-1.758 0.043,-2.2 -0.145,-0.277 -0.27,-1.066 -0.278,-1.75 -0.011,-0.683 -0.101,-1.402 -0.203,-1.593 -0.101,-0.188 -0.187,-0.68 -0.187,-1.09 0,-0.746 0,-0.746 -2.934,-0.746 -2.933,0 -2.933,0 -2.933,-0.735 0,-0.73 0,-0.73 3.046,-0.73 3.043,0 3.043,0 2.934,-0.449 -0.062,-0.246 -0.043,-0.492 0.047,-0.543 0.086,-0.055 0.07,-0.434 -0.043,-0.848 C 49.594,10.191 49.602,10.012 49.801,9.887 50.008,9.762 49.98,9.613 49.66,9.098 49.051,8.113 49.191,7.965 50.098,8.629 51.809,9.883 51.75,9.883 51.109,8.617 50.246,6.902 50.516,6.883 51.918,8.562 c 1.465,1.75 1.707,1.86 1.184,0.536 -1.301,-3.27 -0.852,-3.536 0.687,-0.41 0.649,1.308 1.129,2.132 1.07,1.832 -0.539,-2.868 -0.168,-3.403 0.434,-0.622 0.648,2.997 0.184,2.692 4.184,2.762 4.664,0.082 5.371,0.516 5.371,3.309 0,1.242 0,1.242 -0.641,1.242 -0.641,0 -0.641,0 -0.641,-1.109 0,-1.895 -0.222,-2.008 -3.933,-2.008 -1.668,0 -3.035,0.027 -3.035,0.058 0,0.168 1.156,3.184 1.406,3.668 0.808,1.563 1.527,4.231 1.527,5.66 0,1.375 0.211,1.848 0.465,1.043 0.066,-0.211 0.242,-0.519 0.391,-0.687 0.144,-0.164 0.675,-0.75 1.172,-1.301 0.5,-0.551 0.949,-1.137 1.003,-1.301 0.051,-0.168 0.297,-0.394 0.547,-0.507 0.25,-0.114 0.457,-0.332 0.457,-0.485 0,-0.148 0.192,-0.398 0.43,-0.554 0.234,-0.157 0.52,-0.481 0.629,-0.723 0.113,-0.242 0.395,-0.469 0.625,-0.504 0.27,-0.035 0.445,-0.203 0.48,-0.457 0.086,-0.613 0.489,-0.867 0.829,-0.524 0.394,0.395 0.461,0.36 0.523,-0.316 0.094,-0.976 0.789,-0.93 1.238,0.078 0.352,0.793 0.352,0.793 0.364,0.211 0.035,-1.453 0.816,-2.035 1.195,-0.883 0.246,0.746 0.254,0.754 0.543,0.356 0.238,-0.324 0.273,-0.289 0.476,0.472 0.43,1.59 -0.156,3.895 -1.445,5.7 -0.391,0.543 -0.765,1.277 -0.84,1.629 -0.078,0.39 -0.445,0.964 -0.929,1.464 -2.329,2.407 -3.911,4.786 -4.223,6.34 -0.109,0.555 -0.086,0.578 0.992,0.969 1.598,0.582 2.668,2.855 1.543,3.273 -0.18,0.067 -0.527,0.27 -0.781,0.45 -0.863,0.625 -3.551,1.57 -4.82,1.691 -3.985,0.391 -8.704,3.16 -8.477,4.977 0.168,1.336 -0.246,2.058 -0.926,1.613 -0.394,-0.254 -0.488,-0.258 -0.855,-0.016 -0.41,0.27 -0.414,0.262 -0.348,-0.441 z m 15.426,-9.942 c 0,-0.293 -0.188,-0.445 -0.738,-0.421 -0.254,0.007 -0.332,0.14 -0.18,0.308 0.164,0.176 0.918,0.469 0.918,0.113 z m -2.918,-2.683 c -0.547,-0.301 -1.031,-0.582 -1.07,-0.625 -0.043,-0.043 -0.395,-1.328 -0.778,-2.856 -0.75,-2.984 -0.918,-3.394 -0.914,-2.273 0.004,2.301 1.367,5.473 2.563,5.953 1.234,0.5 1.316,0.418 0.199,-0.199 z m 1.351,-1.629 c 0.352,-0.695 1.129,-1.871 1.727,-2.613 1.32,-1.633 1.316,-1.637 -0.531,-0.871 -1.676,0.691 -2.856,1.601 -3.227,2.488 -0.972,2.328 0.899,3.246 2.031,0.996 z m -33.355,7.664 c -0.773,-0.449 -1.801,-1.574 -2.191,-2.398 -0.407,-0.86 -0.407,-0.86 -1.215,-0.313 -2.285,1.547 -3.543,1.926 -5.422,1.625 -1.07,-0.172 -1.578,-0.141 -3.578,0.207 -3.953,0.692 -4.883,-0.398 -3.461,-4.055 0.691,-1.765 3.129,-4.394 3.129,-3.367 0,1.91 2.816,4.102 5.273,4.102 0.531,0 0.969,0.129 1.274,0.367 0.726,0.57 1.753,0.781 2.644,0.543 0.418,-0.113 1.926,-0.23 3.348,-0.266 3.043,-0.066 3.879,-0.234 6.594,-1.304 2.89,-1.141 3.433,-0.778 3.48,2.32 0.035,2.391 -0.68,2.934 -2.941,2.227 -1.125,-0.352 -1.137,-0.352 -2.2,0.015 -1.269,0.445 -4.168,0.625 -4.734,0.297 z m 8.891,-1.172 c 0.382,-0.461 0.464,-2.531 0.113,-2.824 -0.387,-0.32 -2.543,-0.191 -4.008,0.246 -1.469,0.434 -1.227,0.844 0.879,1.484 0.855,0.262 1.781,0.672 2.059,0.914 0.593,0.524 0.66,0.536 0.957,0.18 z M 20.387,35.492 c -0.27,-1.074 -2.543,-3.066 -3.504,-3.066 -0.625,0 -1.637,0.996 -2.176,2.136 -0.781,1.649 -0.516,1.778 2.336,1.141 1.004,-0.223 1.086,-0.215 2.008,0.262 1.101,0.566 1.558,0.406 1.336,-0.473 z m 5.984,-2.347 c -0.238,-0.098 -0.719,-0.422 -1.059,-0.723 -0.343,-0.301 -0.816,-0.547 -1.054,-0.547 -1.039,0 -5.055,-3.828 -4.488,-4.277 1.277,-1.012 3.925,-2.352 5.488,-2.782 1.824,-0.5 2.113,-0.722 1.543,-1.199 -1.164,-0.965 0.109,-2.402 1.355,-1.531 0.582,0.41 0.617,0.328 0.789,-1.895 0.176,-2.257 1.293,-5.914 1.805,-5.91 0.93,0.004 4.605,2.668 4.875,3.535 0.07,0.223 0.437,0.672 0.82,1 1.899,1.633 2.41,6.676 1.004,9.86 -0.324,0.726 -0.414,1.179 -0.332,1.668 0.106,0.652 0.094,0.668 -0.387,0.547 -0.355,-0.09 -0.648,-0.02 -1.023,0.25 -2.375,1.691 -7.414,2.773 -9.336,2.004 z m 13.867,-0.739 c -0.8,-0.445 -0.793,-0.367 -0.32,-3.097 0.457,-2.657 0.457,-3.321 -0.02,-5.789 -0.214,-1.102 -0.449,-2.708 -0.523,-3.567 -0.152,-1.742 -0.305,-2.129 -1.09,-2.793 -0.347,-0.293 -0.59,-0.707 -0.672,-1.164 -0.414,-2.285 -1.957,-3.738 -4.613,-4.348 -1.129,-0.257 -0.746,-1.113 1.391,-3.089 3.23,-2.993 5.168,-2.399 5.355,1.648 0.086,1.891 0.203,2.605 0.617,3.797 0.735,2.098 0.594,3.281 -0.738,6.246 -0.051,0.113 0.367,0.324 0.977,0.492 2.726,0.758 3.796,2.699 3.363,6.113 -0.149,1.207 -0.133,1.301 0.371,2.102 0.602,0.953 0.812,1.773 0.637,2.469 -0.266,1.058 -3.422,1.715 -4.735,0.98 z m 3.117,-0.707 c 0.954,-0.433 1,-0.84 0.176,-1.496 -0.336,-0.265 -0.875,-0.984 -1.203,-1.601 -1.223,-2.293 -1.754,-2.133 -1.633,0.503 0.145,3.071 0.606,3.524 2.66,2.594 z m -4.222,-18.82 c 0.039,-0.117 -0.266,-0.594 -0.672,-1.067 -0.742,-0.855 -0.742,-0.855 -0.742,-2.593 0,-1.942 -0.149,-2.168 -1.039,-1.614 -2.742,1.704 -2.645,3.645 0.258,5.196 0.734,0.394 2.074,0.441 2.195,0.078 z M 16.82,20.191 c 0,-7.879 -0.375,-7.441 6.461,-7.531 4.539,-0.055 4.539,-0.055 4.539,0.688 0,0.746 0,0.746 -4.41,0.746 -5.894,0 -5.308,-0.699 -5.308,6.316 0,5.418 0,5.418 -0.641,5.418 -0.641,0 -0.641,0 -0.641,-5.637 z" /><g
         aria-label="CENTRE DE LA"
         style="font-variant:normal;font-weight:300;font-size:14px;font-family:'Lato Light';-inkscape-font-specification:Lato-Light;writing-mode:lr-tb;fill:#4d4d4d;fill-opacity:1;fill-rule:nonzero;stroke:none;stroke-width:0.9305436"
         id="text18"><path
           style="stroke-width:0.9305436;fill:#4d4d4d"
           d="m 95.333015,21.619881 q 0.07,0 0.119,0.049 l 0.28,0.301 q -0.308,0.329 -0.672,0.595 -0.357,0.259 -0.791,0.448 -0.427,0.182 -0.945,0.28 -0.511,0.105 -1.127,0.105 -1.029,0 -1.89,-0.357 -0.854,-0.364 -1.47,-1.022 -0.616,-0.665 -0.959,-1.603 -0.336,-0.938 -0.336,-2.086 0,-1.127 0.35,-2.058 0.35,-0.931 0.98,-1.596 0.63,-0.672 1.512,-1.036 0.882,-0.371 1.946,-0.371 1.015,0 1.799,0.315 0.784,0.315 1.428,0.889 l -0.217,0.315 q -0.056,0.084 -0.175,0.084 -0.084,0 -0.273,-0.154 -0.189,-0.154 -0.525,-0.336 -0.336,-0.189 -0.84,-0.343 -0.497,-0.154 -1.197,-0.154 -0.896,0 -1.645,0.308 -0.742,0.308 -1.281,0.882 -0.532,0.574 -0.833,1.4 -0.301,0.826 -0.301,1.855 0,1.05 0.301,1.876 0.308,0.826 0.84,1.4 0.532,0.567 1.253,0.875 0.728,0.301 1.568,0.301 0.532,0 0.945,-0.07 0.42,-0.07 0.77,-0.21 0.35,-0.14 0.651,-0.343 0.301,-0.203 0.595,-0.476 0.035,-0.028 0.07,-0.042 0.035,-0.021 0.07,-0.021 z"
           id="path4710" /><path
           style="stroke-width:0.9305436;fill:#4d4d4d"
           d="m 103.58602,13.380881 v 0.595 h -5.215001 v 4.004 h 4.340001 v 0.581 h -4.340001 v 4.13 h 5.229001 l -0.014,0.595 h -5.936001 v -9.905 z"
           id="path4712" /><path
           style="stroke-width:0.9305436;fill:#4d4d4d"
           d="m 106.12701,13.380881 q 0.098,0 0.147,0.028 0.056,0.021 0.119,0.105 l 6.419,8.582 q -0.021,-0.21 -0.021,-0.406 v -8.309 h 0.623 v 9.905 h -0.336 q -0.091,0 -0.154,-0.028 -0.056,-0.035 -0.112,-0.112 l -6.433,-8.589 q 0.021,0.21 0.021,0.392 v 8.337 h -0.63 v -9.905 z"
           id="path4714" /><path
           style="stroke-width:0.9305436;fill:#4d4d4d"
           d="m 122.78001,13.380881 v 0.609 h -3.479 v 9.296 h -0.721 v -9.296 h -3.5 v -0.609 z"
           id="path4716" /><path
           style="stroke-width:0.9305436;fill:#4d4d4d"
           d="m 125.16702,18.805881 v 4.48 h -0.721 v -9.905 h 2.534 q 1.708,0 2.555,0.665 0.854,0.658 0.854,1.939 0,0.567 -0.203,1.036 -0.196,0.469 -0.567,0.826 -0.364,0.35 -0.889,0.581 -0.518,0.224 -1.162,0.294 0.168,0.105 0.301,0.28 l 3.409,4.284 h -0.616 q -0.119,0 -0.203,-0.035 -0.077,-0.042 -0.147,-0.147 l -3.178,-4.018 q -0.056,-0.077 -0.119,-0.133 -0.056,-0.056 -0.133,-0.084 -0.07,-0.035 -0.175,-0.049 -0.098,-0.014 -0.245,-0.014 z m 0,-0.532 h 1.715 q 0.658,0 1.176,-0.154 0.525,-0.161 0.882,-0.455 0.364,-0.294 0.553,-0.707 0.189,-0.413 0.189,-0.931 0,-1.057 -0.693,-1.568 -0.686,-0.511 -2.009,-0.511 h -1.813 z"
           id="path4718" /><path
           style="stroke-width:0.9305436;fill:#4d4d4d"
           d="m 138.88002,13.380881 v 0.595 h -5.215 v 4.004 h 4.34 v 0.581 h -4.34 v 4.13 h 5.229 l -0.014,0.595 h -5.936 v -9.905 z"
           id="path4720" /><path
           style="stroke-width:0.9305436;fill:#4d4d4d"
           d="m 153.20202,18.329881 q 0,1.148 -0.343,2.065 -0.343,0.917 -0.966,1.561 -0.623,0.644 -1.498,0.987 -0.868,0.343 -1.918,0.343 h -3.619 v -9.905 h 3.619 q 1.05,0 1.918,0.343 0.875,0.343 1.498,0.987 0.623,0.644 0.966,1.561 0.343,0.917 0.343,2.058 z m -0.742,0 q 0,-1.036 -0.287,-1.848 -0.287,-0.812 -0.812,-1.372 -0.525,-0.56 -1.26,-0.854 -0.735,-0.294 -1.624,-0.294 h -2.898 v 8.743 h 2.898 q 0.889,0 1.624,-0.294 0.735,-0.294 1.26,-0.854 0.525,-0.56 0.812,-1.372 0.287,-0.812 0.287,-1.855 z"
           id="path4722" /><path
           style="stroke-width:0.9305436;fill:#4d4d4d"
           d="m 161.43402,13.380881 v 0.595 h -5.215 v 4.004 h 4.34 v 0.581 h -4.34 v 4.13 h 5.229 l -0.014,0.595 h -5.936 v -9.905 z"
           id="path4724" /><path
           style="stroke-width:0.9305436;fill:#4d4d4d"
           d="m 168.13302,22.676881 h 4.69 v 0.609 h -5.411 v -9.905 h 0.721 z"
           id="path4726" /><path
           style="stroke-width:0.9305436;fill:#4d4d4d"
           d="m 182.02802,23.285881 h -0.553 q -0.098,0 -0.161,-0.049 -0.063,-0.056 -0.098,-0.14 l -1.162,-2.877 h -4.865 l -1.162,2.877 q -0.028,0.077 -0.098,0.133 -0.07,0.056 -0.168,0.056 h -0.546 l 4.053,-9.905 h 0.707 z m -6.629,-3.598 h 4.438 l -2.016,-5.005 q -0.105,-0.245 -0.203,-0.588 -0.049,0.168 -0.098,0.322 -0.049,0.154 -0.098,0.273 z"
           id="path4728" /></g><g
         aria-label="SCIENCE"
         style="font-variant:normal;font-weight:bold;font-size:14px;font-family:Lato;-inkscape-font-specification:Lato-Bold;writing-mode:lr-tb;fill:#4d4d4d;fill-opacity:1;fill-rule:nonzero;stroke:none;stroke-width:0.9305436"
         id="text22"><path
           style="stroke-width:0.9305436;fill:#4d4d4d"
           d="m 192.30402,15.004881 q -0.084,0.147 -0.182,0.217 -0.091,0.063 -0.231,0.063 -0.147,0 -0.322,-0.105 -0.168,-0.112 -0.406,-0.245 -0.238,-0.133 -0.56,-0.238 -0.315,-0.112 -0.749,-0.112 -0.392,0 -0.686,0.098 -0.294,0.091 -0.497,0.259 -0.196,0.168 -0.294,0.406 -0.098,0.231 -0.098,0.511 0,0.357 0.196,0.595 0.203,0.238 0.532,0.406 0.329,0.168 0.749,0.301 0.42,0.133 0.861,0.287 0.441,0.147 0.861,0.35 0.42,0.196 0.749,0.504 0.329,0.301 0.525,0.742 0.203,0.441 0.203,1.071 0,0.686 -0.238,1.288 -0.231,0.595 -0.686,1.043 -0.448,0.441 -1.099,0.7 -0.651,0.252 -1.491,0.252 -0.483,0 -0.952,-0.098 -0.469,-0.091 -0.903,-0.266 -0.427,-0.175 -0.805,-0.42 -0.378,-0.245 -0.672,-0.546 l 0.553,-0.903 q 0.07,-0.098 0.182,-0.161 0.112,-0.07 0.238,-0.07 0.175,0 0.378,0.147 0.203,0.14 0.483,0.315 0.28,0.175 0.651,0.322 0.378,0.14 0.903,0.14 0.805,0 1.246,-0.378 0.441,-0.385 0.441,-1.099 0,-0.399 -0.203,-0.651 -0.196,-0.252 -0.525,-0.42 -0.329,-0.175 -0.749,-0.294 -0.42,-0.119 -0.854,-0.259 -0.434,-0.14 -0.854,-0.336 -0.42,-0.196 -0.749,-0.511 -0.329,-0.315 -0.532,-0.784 -0.196,-0.476 -0.196,-1.169 0,-0.553 0.217,-1.078 0.224,-0.525 0.644,-0.931 0.42,-0.406 1.036,-0.651 0.616,-0.245 1.414,-0.245 0.896,0 1.652,0.28 0.756,0.28 1.288,0.784 z"
           id="path4731" /><path
           style="stroke-width:0.9305436;fill:#4d4d4d"
           d="m 201.53701,20.898881 q 0.154,0 0.273,0.119 l 0.742,0.805 q -0.616,0.763 -1.519,1.169 -0.896,0.406 -2.156,0.406 -1.127,0 -2.03,-0.385 -0.896,-0.385 -1.533,-1.071 -0.637,-0.686 -0.98,-1.638 -0.336,-0.952 -0.336,-2.079 0,-1.141 0.364,-2.086 0.364,-0.952 1.022,-1.638 0.665,-0.686 1.582,-1.064 0.917,-0.385 2.03,-0.385 1.106,0 1.96,0.364 0.861,0.364 1.463,0.952 l -0.63,0.875 q -0.056,0.084 -0.147,0.147 -0.084,0.063 -0.238,0.063 -0.105,0 -0.217,-0.056 -0.112,-0.063 -0.245,-0.147 -0.133,-0.091 -0.308,-0.196 -0.175,-0.105 -0.406,-0.189 -0.231,-0.091 -0.539,-0.147 -0.301,-0.063 -0.7,-0.063 -0.679,0 -1.246,0.245 -0.56,0.238 -0.966,0.7 -0.406,0.455 -0.63,1.12 -0.224,0.658 -0.224,1.505 0,0.854 0.238,1.519 0.245,0.665 0.658,1.12 0.413,0.455 0.973,0.7 0.56,0.238 1.204,0.238 0.385,0 0.693,-0.042 0.315,-0.042 0.574,-0.133 0.266,-0.091 0.497,-0.231 0.238,-0.147 0.469,-0.357 0.07,-0.063 0.147,-0.098 0.077,-0.042 0.161,-0.042 z"
           id="path4733" /><path
           style="stroke-width:0.9305436;fill:#4d4d4d"
           d="m 205.73003,23.285881 h -1.89 v -10.122 h 1.89 z"
           id="path4735" /><path
           style="stroke-width:0.9305436;fill:#4d4d4d"
           d="m 214.36803,13.163881 v 1.498 h -4.494 v 2.807 h 3.542 v 1.449 h -3.542 v 2.863 h 4.494 v 1.505 h -6.384 v -10.122 z"
           id="path4737" /><path
           style="stroke-width:0.9305436;fill:#4d4d4d"
           d="m 217.02103,13.163881 q 0.119,0 0.203,0.014 0.091,0.007 0.154,0.042 0.07,0.028 0.133,0.091 0.063,0.056 0.14,0.154 l 5.306,6.776 q -0.021,-0.245 -0.035,-0.483 -0.014,-0.238 -0.014,-0.441 v -6.153 h 1.659 v 10.122 h -0.966 q -0.224,0 -0.378,-0.07 -0.147,-0.077 -0.287,-0.252 l -5.285,-6.741 q 0.021,0.224 0.028,0.448 0.014,0.217 0.014,0.399 v 6.216 h -1.659 v -10.122 z"
           id="path4739" /><path
           style="stroke-width:0.9305436;fill:#4d4d4d"
           d="m 233.76503,20.898881 q 0.154,0 0.273,0.119 l 0.742,0.805 q -0.616,0.763 -1.519,1.169 -0.896,0.406 -2.156,0.406 -1.127,0 -2.03,-0.385 -0.896,-0.385 -1.533,-1.071 -0.637,-0.686 -0.98,-1.638 -0.336,-0.952 -0.336,-2.079 0,-1.141 0.364,-2.086 0.364,-0.952 1.022,-1.638 0.665,-0.686 1.582,-1.064 0.917,-0.385 2.03,-0.385 1.106,0 1.96,0.364 0.861,0.364 1.463,0.952 l -0.63,0.875 q -0.056,0.084 -0.147,0.147 -0.084,0.063 -0.238,0.063 -0.105,0 -0.217,-0.056 -0.112,-0.063 -0.245,-0.147 -0.133,-0.091 -0.308,-0.196 -0.175,-0.105 -0.406,-0.189 -0.231,-0.091 -0.539,-0.147 -0.301,-0.063 -0.7,-0.063 -0.679,0 -1.246,0.245 -0.56,0.238 -0.966,0.7 -0.406,0.455 -0.63,1.12 -0.224,0.658 -0.224,1.505 0,0.854 0.238,1.519 0.245,0.665 0.658,1.12 0.413,0.455 0.973,0.7 0.56,0.238 1.204,0.238 0.385,0 0.693,-0.042 0.315,-0.042 0.574,-0.133 0.266,-0.091 0.497,-0.231 0.238,-0.147 0.469,-0.357 0.07,-0.063 0.147,-0.098 0.077,-0.042 0.161,-0.042 z"
           id="path4741" /><path
           style="stroke-width:0.9305436;fill:#4d4d4d"
           d="m 242.49402,13.163881 v 1.498 h -4.494 v 2.807 h 3.542 v 1.449 h -3.542 v 2.863 h 4.494 v 1.505 h -6.384 v -10.122 z"
           id="path4743" /></g><g
         aria-label="DE LA"
         style="font-variant:normal;font-weight:300;font-size:14px;font-family:'Lato Light';-inkscape-font-specification:Lato-Light;writing-mode:lr-tb;fill:#4d4d4d;fill-opacity:1;fill-rule:nonzero;stroke:none;stroke-width:0.9305436"
         id="text26"><path
           style="stroke-width:0.9305436;fill:#4d4d4d"
           d="m 96.530015,36.409871 q 0,1.148 -0.343,2.065 -0.343,0.917 -0.966,1.561 -0.623,0.644 -1.498,0.987 -0.868,0.343 -1.918,0.343 h -3.619 v -9.905 h 3.619 q 1.05,0 1.918,0.343 0.875,0.343 1.498,0.987 0.623,0.644 0.966,1.561 0.343,0.917 0.343,2.058 z m -0.742,0 q 0,-1.036 -0.287,-1.848 -0.287,-0.812 -0.812,-1.372 -0.525,-0.56 -1.26,-0.854 -0.735,-0.294 -1.624,-0.294 h -2.898 v 8.743 h 2.898 q 0.889,0 1.624,-0.294 0.735,-0.294 1.26,-0.854 0.525,-0.56 0.812,-1.372 0.287,-0.812 0.287,-1.855 z"
           id="path4746" /><path
           style="stroke-width:0.9305436;fill:#4d4d4d"
           d="m 104.76201,31.460871 v 0.595 h -5.214996 v 4.004 h 4.339996 v 0.581 h -4.339996 v 4.13 h 5.228996 l -0.014,0.595 h -5.935996 v -9.905 z"
           id="path4748" /><path
           style="stroke-width:0.9305436;fill:#4d4d4d"
           d="m 111.46102,40.756871 h 4.69 v 0.609 h -5.411 v -9.905 h 0.721 z"
           id="path4750" /><path
           style="stroke-width:0.9305436;fill:#4d4d4d"
           d="m 125.35602,41.365871 h -0.553 q -0.098,0 -0.161,-0.049 -0.063,-0.056 -0.098,-0.14 l -1.162,-2.877 h -4.865 l -1.162,2.877 q -0.028,0.077 -0.098,0.133 -0.07,0.056 -0.168,0.056 h -0.546 l 4.053,-9.905 h 0.707 z m -6.629,-3.598 h 4.438 l -2.016,-5.005 q -0.105,-0.245 -0.203,-0.588 -0.049,0.168 -0.098,0.322 -0.049,0.154 -0.098,0.273 z"
           id="path4752" /></g><g
         aria-label="BIODIVERSITÉ"
         style="font-variant:normal;font-weight:bold;font-size:14px;font-family:Lato;-inkscape-font-specification:Lato-Bold;writing-mode:lr-tb;fill:#4d4d4d;fill-opacity:1;fill-rule:nonzero;stroke:none;stroke-width:0.9305436"
         id="text30"><path
           style="stroke-width:0.9305436;fill:#4d4d4d"
           d="m 130.24202,41.365871 v -10.122 h 3.486 q 0.994,0 1.701,0.189 0.707,0.189 1.155,0.539 0.455,0.35 0.665,0.847 0.21,0.497 0.21,1.12 0,0.357 -0.105,0.686 -0.105,0.322 -0.329,0.609 -0.217,0.28 -0.56,0.511 -0.336,0.231 -0.805,0.392 2.086,0.469 2.086,2.254 0,0.644 -0.245,1.19 -0.245,0.546 -0.714,0.945 -0.469,0.392 -1.155,0.616 -0.686,0.224 -1.568,0.224 z m 1.883,-4.438 v 2.968 h 1.904 q 0.525,0 0.882,-0.126 0.357,-0.126 0.567,-0.336 0.217,-0.21 0.308,-0.49 0.098,-0.28 0.098,-0.595 0,-0.329 -0.105,-0.588 -0.105,-0.266 -0.329,-0.448 -0.224,-0.189 -0.581,-0.287 -0.35,-0.098 -0.847,-0.098 z m 0,-1.302 h 1.498 q 0.966,0 1.456,-0.35 0.497,-0.35 0.497,-1.113 0,-0.791 -0.448,-1.127 -0.448,-0.336 -1.4,-0.336 h -1.603 z"
           id="path4755" /><path
           style="stroke-width:0.9305436;fill:#4d4d4d"
           d="m 141.34403,41.365871 h -1.89 v -10.122 h 1.89 z"
           id="path4757" /><path
           style="stroke-width:0.9305436;fill:#4d4d4d"
           d="m 153.25102,36.304871 q 0,1.113 -0.371,2.065 -0.364,0.945 -1.036,1.638 -0.672,0.693 -1.617,1.085 -0.945,0.385 -2.1,0.385 -1.148,0 -2.093,-0.385 -0.945,-0.392 -1.624,-1.085 -0.672,-0.693 -1.043,-1.638 -0.371,-0.952 -0.371,-2.065 0,-1.113 0.371,-2.058 0.371,-0.952 1.043,-1.645 0.679,-0.693 1.624,-1.078 0.945,-0.392 2.093,-0.392 0.77,0 1.449,0.182 0.679,0.175 1.246,0.504 0.567,0.322 1.015,0.791 0.455,0.462 0.77,1.036 0.315,0.574 0.476,1.246 0.168,0.672 0.168,1.414 z m -1.925,0 q 0,-0.833 -0.224,-1.491 -0.224,-0.665 -0.637,-1.127 -0.413,-0.462 -1.008,-0.707 -0.588,-0.245 -1.33,-0.245 -0.742,0 -1.337,0.245 -0.588,0.245 -1.008,0.707 -0.413,0.462 -0.637,1.127 -0.224,0.658 -0.224,1.491 0,0.833 0.224,1.498 0.224,0.658 0.637,1.12 0.42,0.455 1.008,0.7 0.595,0.245 1.337,0.245 0.742,0 1.33,-0.245 0.595,-0.245 1.008,-0.7 0.413,-0.462 0.637,-1.12 0.224,-0.665 0.224,-1.498 z"
           id="path4759" /><path
           style="stroke-width:0.9305436;fill:#4d4d4d"
           d="m 163.89802,36.304871 q 0,1.113 -0.371,2.044 -0.371,0.931 -1.043,1.603 -0.672,0.672 -1.617,1.043 -0.945,0.371 -2.1,0.371 h -3.857 v -10.122 h 3.857 q 1.155,0 2.1,0.378 0.945,0.371 1.617,1.043 0.672,0.665 1.043,1.596 0.371,0.931 0.371,2.044 z m -1.932,0 q 0,-0.833 -0.224,-1.491 -0.217,-0.665 -0.637,-1.12 -0.413,-0.462 -1.008,-0.707 -0.588,-0.245 -1.33,-0.245 h -1.967 v 7.126 h 1.967 q 0.742,0 1.33,-0.245 0.595,-0.245 1.008,-0.7 0.42,-0.462 0.637,-1.12 0.224,-0.665 0.224,-1.498 z"
           id="path4761" /><path
           style="stroke-width:0.9305436;fill:#4d4d4d"
           d="m 167.44002,41.365871 h -1.89 v -10.122 h 1.89 z"
           id="path4763" /><path
           style="stroke-width:0.9305436;fill:#4d4d4d"
           d="m 168.49002,31.243871 h 1.512 q 0.245,0 0.399,0.119 0.154,0.119 0.231,0.308 l 2.387,6.174 q 0.119,0.301 0.224,0.665 0.112,0.357 0.21,0.749 0.077,-0.392 0.175,-0.749 0.105,-0.364 0.224,-0.665 l 2.373,-6.174 q 0.056,-0.161 0.217,-0.294 0.168,-0.133 0.406,-0.133 h 1.519 l -4.088,10.122 h -1.701 z"
           id="path4765" /><path
           style="stroke-width:0.9305436;fill:#4d4d4d"
           d="m 185.79402,31.243871 v 1.498 h -4.494 v 2.807 h 3.542 v 1.449 h -3.542 v 2.863 h 4.494 v 1.505 h -6.384 v -10.122 z"
           id="path4767" /><path
           style="stroke-width:0.9305436;fill:#4d4d4d"
           d="m 189.34302,37.410871 v 3.955 h -1.883 v -10.122 h 3.087 q 1.029,0 1.764,0.217 0.742,0.21 1.211,0.595 0.476,0.385 0.7,0.924 0.224,0.532 0.224,1.176 0,0.511 -0.154,0.966 -0.147,0.455 -0.434,0.826 -0.28,0.371 -0.7,0.651 -0.413,0.28 -0.945,0.448 0.357,0.203 0.616,0.581 l 2.534,3.738 h -1.701 q -0.483,0 -0.7,-0.378 l -2.128,-3.241 q -0.119,-0.182 -0.266,-0.259 -0.14,-0.077 -0.42,-0.077 z m 0,-1.351 h 1.176 q 0.532,0 0.924,-0.133 0.399,-0.133 0.651,-0.364 0.259,-0.238 0.385,-0.56 0.126,-0.322 0.126,-0.707 0,-0.77 -0.511,-1.183 -0.504,-0.413 -1.547,-0.413 h -1.204 z"
           id="path4769" /><path
           style="stroke-width:0.9305436;fill:#4d4d4d"
           d="m 201.85202,33.084871 q -0.084,0.147 -0.182,0.217 -0.091,0.063 -0.231,0.063 -0.147,0 -0.322,-0.105 -0.168,-0.112 -0.406,-0.245 -0.238,-0.133 -0.56,-0.238 -0.315,-0.112 -0.749,-0.112 -0.392,0 -0.686,0.098 -0.294,0.091 -0.497,0.259 -0.196,0.168 -0.294,0.406 -0.098,0.231 -0.098,0.511 0,0.357 0.196,0.595 0.203,0.238 0.532,0.406 0.329,0.168 0.749,0.301 0.42,0.133 0.861,0.287 0.441,0.147 0.861,0.35 0.42,0.196 0.749,0.504 0.329,0.301 0.525,0.742 0.203,0.441 0.203,1.071 0,0.686 -0.238,1.288 -0.231,0.595 -0.686,1.043 -0.448,0.441 -1.099,0.7 -0.651,0.252 -1.491,0.252 -0.483,0 -0.952,-0.098 -0.469,-0.091 -0.903,-0.266 -0.427,-0.175 -0.805,-0.42 -0.378,-0.245 -0.672,-0.546 l 0.553,-0.903 q 0.07,-0.098 0.182,-0.161 0.112,-0.07 0.238,-0.07 0.175,0 0.378,0.147 0.203,0.14 0.483,0.315 0.28,0.175 0.651,0.322 0.378,0.14 0.903,0.14 0.805,0 1.246,-0.378 0.441,-0.385 0.441,-1.099 0,-0.399 -0.203,-0.651 -0.196,-0.252 -0.525,-0.42 -0.329,-0.175 -0.749,-0.294 -0.42,-0.119 -0.854,-0.259 -0.434,-0.14 -0.854,-0.336 -0.42,-0.196 -0.749,-0.511 -0.329,-0.315 -0.532,-0.784 -0.196,-0.476 -0.196,-1.169 0,-0.553 0.217,-1.078 0.224,-0.525 0.644,-0.931 0.42,-0.406 1.036,-0.651 0.616,-0.245 1.414,-0.245 0.896,0 1.652,0.28 0.756,0.28 1.288,0.784 z"
           id="path4771" /><path
           style="stroke-width:0.9305436;fill:#4d4d4d"
           d="m 206.02402,41.365871 h -1.89 v -10.122 h 1.89 z"
           id="path4773" /><path
           style="stroke-width:0.9305436;fill:#4d4d4d"
           d="m 215.34802,31.243871 v 1.547 h -3.052 v 8.575 h -1.883 v -8.575 h -3.052 v -1.547 z"
           id="path4775" /><path
           style="stroke-width:0.9305436;fill:#4d4d4d"
           d="m 216.67801,41.365871 z m 6.384,-10.122 v 1.498 h -4.494 v 2.807 h 3.542 v 1.449 h -3.542 v 2.863 h 4.494 v 1.505 h -6.384 v -10.122 z m -0.147,-2.905 -2.268,2.002 q -0.14,0.126 -0.266,0.154 -0.126,0.028 -0.322,0.028 h -1.253 l 1.463,-1.897 q 0.07,-0.098 0.14,-0.154 0.07,-0.063 0.154,-0.091 0.084,-0.028 0.182,-0.035 0.105,-0.007 0.245,-0.007 z"
           id="path4777" /></g><g
         aria-label="DU "
         style="font-variant:normal;font-weight:300;font-size:14px;font-family:'Lato Light';-inkscape-font-specification:Lato-Light;writing-mode:lr-tb;fill:#4d4d4d;fill-opacity:1;fill-rule:nonzero;stroke:none;stroke-width:0.9305436"
         id="text34"><path
           style="stroke-width:0.9305436;fill:#4d4d4d"
           d="m 96.530015,54.489866 q 0,1.148 -0.343,2.065 -0.343,0.917 -0.966,1.561 -0.623,0.644 -1.498,0.987 -0.868,0.343 -1.918,0.343 h -3.619 v -9.905 h 3.619 q 1.05,0 1.918,0.343 0.875,0.343 1.498,0.987 0.623,0.644 0.966,1.561 0.343,0.917 0.343,2.058 z m -0.742,0 q 0,-1.036 -0.287,-1.848 -0.287,-0.812 -0.812,-1.372 -0.525,-0.56 -1.26,-0.854 -0.735,-0.294 -1.624,-0.294 h -2.898 v 8.743 h 2.898 q 0.889,0 1.624,-0.294 0.735,-0.294 1.26,-0.854 0.525,-0.56 0.812,-1.372 0.287,-0.812 0.287,-1.855 z"
           id="path4780" /><path
           style="stroke-width:0.9305436;fill:#4d4d4d"
           d="m 102.45201,58.934866 q 0.714,0 1.274,-0.245 0.567,-0.252 0.959,-0.693 0.392,-0.441 0.595,-1.036 0.21,-0.602 0.21,-1.295 v -6.125 h 0.714 v 6.125 q 0,0.819 -0.259,1.533 -0.259,0.707 -0.749,1.239 -0.483,0.525 -1.183,0.826 -0.693,0.301 -1.561,0.301 -0.868,0 -1.568,-0.301 -0.693,-0.301 -1.182996,-0.826 -0.483,-0.532 -0.742,-1.239 -0.259,-0.714 -0.259,-1.533 v -6.125 h 0.721 v 6.118 q 0,0.693 0.203,1.295 0.21,0.595 0.594996,1.036 0.392,0.441 0.952,0.693 0.567,0.252 1.281,0.252 z"
           id="path4782" /></g><path
         id="path4785"
         style="font-variant:normal;font-weight:bold;font-size:14px;font-family:Lato;-inkscape-font-specification:Lato-Bold;writing-mode:lr-tb;fill:#4d4d4d;fill-opacity:1;fill-rule:nonzero;stroke:none;stroke-width:0.9305436"
         d="m 122.12202,54.384866 q 0,0.679 -0.14,1.302 -0.14,0.616 -0.406,1.162 -0.259,0.539 -0.637,0.994 -0.378,0.448 -0.861,0.791 l 2.569,2.793 h -1.554 q -0.336,0 -0.609,-0.091 -0.266,-0.091 -0.49,-0.336 l -1.484,-1.638 q -0.357,0.098 -0.735,0.147 -0.371,0.049 -0.777,0.049 -1.148,0 -2.093,-0.385 -0.945,-0.392 -1.624,-1.085 -0.672,-0.693 -1.043,-1.638 -0.371,-0.952 -0.371,-2.065 0,-1.113 0.371,-2.058 0.371,-0.952 1.043,-1.645 0.679,-0.693 1.624,-1.078 0.945,-0.392 2.093,-0.392 0.77,0 1.449,0.182 0.679,0.175 1.246,0.504 0.567,0.322 1.015,0.791 0.455,0.462 0.77,1.036 0.315,0.574 0.476,1.246 0.168,0.672 0.168,1.414 z m -1.925,0 q 0,-0.833 -0.224,-1.491 -0.224,-0.665 -0.637,-1.127 -0.413,-0.462 -1.008,-0.707 -0.588,-0.245 -1.33,-0.245 -0.742,0 -1.337,0.245 -0.588,0.245 -1.008,0.707 -0.413,0.462 -0.637,1.127 -0.224,0.658 -0.224,1.491 0,0.833 0.224,1.498 0.224,0.658 0.637,1.12 0.42,0.455 1.008,0.7 0.595,0.245 1.337,0.245 0.742,0 1.33,-0.245 0.595,-0.245 1.008,-0.7 0.413,-0.462 0.637,-1.12 0.224,-0.665 0.224,-1.498 z" /><path
         id="path4787"
         style="font-variant:normal;font-weight:bold;font-size:14px;font-family:Lato;-inkscape-font-specification:Lato-Bold;writing-mode:lr-tb;fill:#4d4d4d;fill-opacity:1;fill-rule:nonzero;stroke:none;stroke-width:0.9305436"
         d="m 127.84802,57.926866 q 0.546,0 0.973,-0.182 0.434,-0.182 0.728,-0.511 0.294,-0.329 0.448,-0.798 0.161,-0.469 0.161,-1.05 v -6.062 h 1.883 v 6.062 q 0,0.903 -0.294,1.673 -0.287,0.763 -0.833,1.323 -0.539,0.553 -1.316,0.868 -0.777,0.308 -1.75,0.308 -0.98,0 -1.757,-0.308 -0.777,-0.315 -1.323,-0.868 -0.539,-0.56 -0.833,-1.323 -0.287,-0.77 -0.287,-1.673 v -6.062 h 1.883 v 6.055 q 0,0.581 0.154,1.05 0.161,0.469 0.455,0.805 0.301,0.329 0.728,0.511 0.434,0.182 0.98,0.182 z" /><path
         id="path4789"
         style="font-variant:normal;font-weight:bold;font-size:14px;font-family:Lato;-inkscape-font-specification:Lato-Bold;writing-mode:lr-tb;fill:#4d4d4d;fill-opacity:1;fill-rule:nonzero;stroke:none;stroke-width:0.9305436"
         d="m 134.16202,59.445866 z m 6.384,-10.122 v 1.498 h -4.494 v 2.807 h 3.542 v 1.449 h -3.542 v 2.863 h 4.494 v 1.505 h -6.384 v -10.122 z m -0.147,-2.905 -2.268,2.002 q -0.14,0.126 -0.266,0.154 -0.126,0.028 -0.322,0.028 h -1.253 l 1.463,-1.897 q 0.07,-0.098 0.14,-0.154 0.07,-0.063 0.154,-0.091 0.084,-0.028 0.182,-0.035 0.105,-0.007 0.245,-0.007 z" /><path
         id="path4791"
         style="font-variant:normal;font-weight:bold;font-size:14px;font-family:Lato;-inkscape-font-specification:Lato-Bold;writing-mode:lr-tb;fill:#4d4d4d;fill-opacity:1;fill-rule:nonzero;stroke:none;stroke-width:0.9305436"
         d="m 142.21202,59.445866 v -10.122 h 3.486 q 0.994,0 1.701,0.189 0.707,0.189 1.155,0.539 0.455,0.35 0.665,0.847 0.21,0.497 0.21,1.12 0,0.357 -0.105,0.686 -0.105,0.322 -0.329,0.609 -0.217,0.28 -0.56,0.511 -0.336,0.231 -0.805,0.392 2.086,0.469 2.086,2.254 0,0.644 -0.245,1.19 -0.245,0.546 -0.714,0.945 -0.469,0.392 -1.155,0.616 -0.686,0.224 -1.568,0.224 z m 1.883,-4.438 v 2.968 h 1.904 q 0.525,0 0.882,-0.126 0.357,-0.126 0.567,-0.336 0.217,-0.21 0.308,-0.49 0.098,-0.28 0.098,-0.595 0,-0.329 -0.105,-0.588 -0.105,-0.266 -0.329,-0.448 -0.224,-0.189 -0.581,-0.287 -0.35,-0.098 -0.847,-0.098 z m 0,-1.302 h 1.498 q 0.966,0 1.456,-0.35 0.497,-0.35 0.497,-1.113 0,-0.791 -0.448,-1.127 -0.448,-0.336 -1.4,-0.336 h -1.603 z" /><path
         id="path4793"
         style="font-variant:normal;font-weight:bold;font-size:14px;font-family:Lato;-inkscape-font-specification:Lato-Bold;writing-mode:lr-tb;fill:#4d4d4d;fill-opacity:1;fill-rule:nonzero;stroke:none;stroke-width:0.9305436"
         d="m 157.80803,49.323866 v 1.498 h -4.494 v 2.807 h 3.542 v 1.449 h -3.542 v 2.863 h 4.494 v 1.505 h -6.384 v -10.122 z" /><path
         id="path4795"
         style="font-variant:normal;font-weight:bold;font-size:14px;font-family:Lato;-inkscape-font-specification:Lato-Bold;writing-mode:lr-tb;fill:#4d4d4d;fill-opacity:1;fill-rule:nonzero;stroke:none;stroke-width:0.9305436"
         d="m 166.17302,57.058866 q 0.154,0 0.273,0.119 l 0.742,0.805 q -0.616,0.763 -1.519,1.169 -0.896,0.406 -2.156,0.406 -1.127,0 -2.03,-0.385 -0.896,-0.385 -1.533,-1.071 -0.637,-0.686 -0.98,-1.638 -0.336,-0.952 -0.336,-2.079 0,-1.141 0.364,-2.086 0.364,-0.952 1.022,-1.638 0.665,-0.686 1.582,-1.064 0.917,-0.385 2.03,-0.385 1.106,0 1.96,0.364 0.861,0.364 1.463,0.952 l -0.63,0.875 q -0.056,0.084 -0.147,0.147 -0.084,0.063 -0.238,0.063 -0.105,0 -0.217,-0.056 -0.112,-0.063 -0.245,-0.147 -0.133,-0.091 -0.308,-0.196 -0.175,-0.105 -0.406,-0.189 -0.231,-0.091 -0.539,-0.147 -0.301,-0.063 -0.7,-0.063 -0.679,0 -1.246,0.245 -0.56,0.238 -0.966,0.7 -0.406,0.455 -0.63,1.12 -0.224,0.658 -0.224,1.505 0,0.854 0.238,1.519 0.245,0.665 0.658,1.12 0.413,0.455 0.973,0.7 0.56,0.238 1.204,0.238 0.385,0 0.693,-0.042 0.315,-0.042 0.574,-0.133 0.266,-0.091 0.497,-0.231 0.238,-0.147 0.469,-0.357 0.07,-0.063 0.147,-0.098 0.077,-0.042 0.161,-0.042 z" /><path
         id="path4797"
         style="font-variant:normal;font-weight:bold;font-size:14px;font-family:Lato;-inkscape-font-specification:Lato-Bold;writing-mode:lr-tb;fill:#4d4d4d;fill-opacity:1;fill-rule:nonzero;stroke:none;stroke-width:0.9305436"
         d="m 280.09517,17.958138 q 0,0.679 -0.14,1.302 -0.14,0.616 -0.406,1.162 -0.259,0.539 -0.637,0.994 -0.378,0.448 -0.861,0.791 l 2.569,2.793 h -1.554 q -0.336,0 -0.609,-0.091 -0.266,-0.091 -0.49,-0.336 l -1.484,-1.638 q -0.357,0.098 -0.735,0.147 -0.371,0.049 -0.777,0.049 -1.148,0 -2.093,-0.385 -0.945,-0.392 -1.624,-1.085 -0.672,-0.693 -1.043,-1.638 -0.371,-0.952 -0.371,-2.065 0,-1.113 0.371,-2.058 0.371,-0.952 1.043,-1.645 0.679,-0.693 1.624,-1.078 0.945,-0.392 2.093,-0.392 0.77,0 1.449,0.182 0.679,0.175 1.246,0.504 0.567,0.322 1.015,0.791 0.455,0.462 0.77,1.036 0.315,0.574 0.476,1.246 0.168,0.672 0.168,1.414 z m -1.925,0 q 0,-0.833 -0.224,-1.491 -0.224,-0.665 -0.637,-1.127 -0.413,-0.462 -1.008,-0.707 -0.588,-0.245 -1.33,-0.245 -0.742,0 -1.337,0.245 -0.588,0.245 -1.008,0.707 -0.413,0.462 -0.637,1.127 -0.224,0.658 -0.224,1.491 0,0.833 0.224,1.498 0.224,0.658 0.637,1.12 0.42,0.455 1.008,0.7 0.595,0.245 1.337,0.245 0.742,0 1.33,-0.245 0.595,-0.245 1.008,-0.7 0.413,-0.462 0.637,-1.12 0.224,-0.665 0.224,-1.498 z" /><path
         id="path4799"
         style="font-variant:normal;font-weight:bold;font-size:14px;font-family:Lato;-inkscape-font-specification:Lato-Bold;writing-mode:lr-tb;fill:#4d4d4d;fill-opacity:1;fill-rule:nonzero;stroke:none;stroke-width:0.9305436"
         d="m 285.82115,21.500138 q 0.546,0 0.973,-0.182 0.434,-0.182 0.728,-0.511 0.294,-0.329 0.448,-0.798 0.161,-0.469 0.161,-1.05 v -6.062 h 1.883 v 6.062 q 0,0.903 -0.294,1.673 -0.287,0.763 -0.833,1.323 -0.539,0.553 -1.316,0.868 -0.777,0.308 -1.75,0.308 -0.98,0 -1.757,-0.308 -0.777,-0.315 -1.323,-0.868 -0.539,-0.56 -0.833,-1.323 -0.287,-0.77 -0.287,-1.673 v -6.062 h 1.883 v 6.055 q 0,0.581 0.154,1.05 0.161,0.469 0.455,0.805 0.301,0.329 0.728,0.511 0.434,0.182 0.98,0.182 z" /><path
         id="path4801"
         style="font-variant:normal;font-weight:bold;font-size:14px;font-family:Lato;-inkscape-font-specification:Lato-Bold;writing-mode:lr-tb;fill:#4d4d4d;fill-opacity:1;fill-rule:nonzero;stroke:none;stroke-width:0.9305436"
         d="m 298.51915,12.897138 v 1.498 h -4.494 v 2.807 h 3.542 v 1.449 h -3.542 v 2.863 h 4.494 v 1.505 h -6.384 v -10.122 z" /><path
         id="path4803"
         style="font-variant:normal;font-weight:bold;font-size:14px;font-family:Lato;-inkscape-font-specification:Lato-Bold;writing-mode:lr-tb;fill:#4d4d4d;fill-opacity:1;fill-rule:nonzero;stroke:none;stroke-width:0.9305436"
         d="m 300.18517,23.019138 v -10.122 h 3.486 q 0.994,0 1.701,0.189 0.707,0.189 1.155,0.539 0.455,0.35 0.665,0.847 0.21,0.497 0.21,1.12 0,0.357 -0.105,0.686 -0.105,0.322 -0.329,0.609 -0.217,0.28 -0.56,0.511 -0.336,0.231 -0.805,0.392 2.086,0.469 2.086,2.254 0,0.644 -0.245,1.19 -0.245,0.546 -0.714,0.945 -0.469,0.392 -1.155,0.616 -0.686,0.224 -1.568,0.224 z m 1.883,-4.438 v 2.968 h 1.904 q 0.525,0 0.882,-0.126 0.357,-0.126 0.567,-0.336 0.217,-0.21 0.308,-0.49 0.098,-0.28 0.098,-0.595 0,-0.329 -0.105,-0.588 -0.105,-0.266 -0.329,-0.448 -0.224,-0.189 -0.581,-0.287 -0.35,-0.098 -0.847,-0.098 z m 0,-1.302 h 1.498 q 0.966,0 1.456,-0.35 0.497,-0.35 0.497,-1.113 0,-0.791 -0.448,-1.127 -0.448,-0.336 -1.4,-0.336 h -1.603 z" /><path
         id="path4805"
         style="font-variant:normal;font-weight:bold;font-size:14px;font-family:Lato;-inkscape-font-specification:Lato-Bold;writing-mode:lr-tb;fill:#4d4d4d;fill-opacity:1;fill-rule:nonzero;stroke:none;stroke-width:0.9305436"
         d="m 315.78117,12.897138 v 1.498 h -4.494 v 2.807 h 3.542 v 1.449 h -3.542 v 2.863 h 4.494 v 1.505 h -6.384 v -10.122 z" /><path
         id="path4807"
         style="font-variant:normal;font-weight:bold;font-size:14px;font-family:Lato;-inkscape-font-specification:Lato-Bold;writing-mode:lr-tb;fill:#4d4d4d;fill-opacity:1;fill-rule:nonzero;stroke:none;stroke-width:0.9305436"
         d="m 324.16015,20.632138 q 0.154,0 0.273,0.119 l 0.742,0.805 q -0.616,0.763 -1.519,1.169 -0.896,0.406 -2.156,0.406 -1.127,0 -2.03,-0.385 -0.896,-0.385 -1.533,-1.071 -0.637,-0.686 -0.98,-1.638 -0.336,-0.952 -0.336,-2.079 0,-1.141 0.364,-2.086 0.364,-0.952 1.022,-1.638 0.665,-0.686 1.582,-1.064 0.917,-0.385 2.03,-0.385 1.106,0 1.96,0.364 0.861,0.364 1.463,0.952 l -0.63,0.875 q -0.056,0.084 -0.147,0.147 -0.084,0.063 -0.238,0.063 -0.105,0 -0.217,-0.056 -0.112,-0.063 -0.245,-0.147 -0.133,-0.091 -0.308,-0.196 -0.175,-0.105 -0.406,-0.189 -0.231,-0.091 -0.539,-0.147 -0.301,-0.063 -0.7,-0.063 -0.679,0 -1.246,0.245 -0.56,0.238 -0.966,0.7 -0.406,0.455 -0.63,1.12 -0.224,0.658 -0.224,1.505 0,0.854 0.238,1.519 0.245,0.665 0.658,1.12 0.413,0.455 0.973,0.7 0.56,0.238 1.204,0.238 0.385,0 0.693,-0.042 0.315,-0.042 0.574,-0.133 0.266,-0.091 0.497,-0.231 0.238,-0.147 0.469,-0.357 0.07,-0.063 0.147,-0.098 0.077,-0.042 0.161,-0.042 z" /><text
         id="text44"
         style="font-variant:normal;font-weight:300;font-size:14px;font-family:'Lato Light';-inkscape-font-specification:Lato-Light;writing-mode:lr-tb;fill:#4d4d4d;fill-opacity:1;fill-rule:nonzero;stroke:none;stroke-width:0.9305436"
         x="328.92017"
         y="23.019138"><tspan
           style="stroke-width:0.9305436;fill:#4d4d4d"
           id="tspan42"
           y="23.019138"
           x="328.92017 338.38416 346.50415 357.07416 365.18015 373.67816">CENTRE</tspan></text>
<text
         id="text48"
         style="font-variant:normal;font-weight:300;font-size:14px;font-family:'Lato Light';-inkscape-font-specification:Lato-Light;writing-mode:lr-tb;fill:#4d4d4d;fill-opacity:1;fill-rule:nonzero;stroke:none;stroke-width:0.9305436"
         x="269.30817"
         y="41.099133"><tspan
           style="stroke-width:0.9305436;fill:#4d4d4d"
           id="tspan46"
           y="41.099133"
           x="269.30817 277.09216 288.16617">FOR</tspan></text>
<g
         aria-label="BIODIVERSITY"
         style="font-variant:normal;font-weight:bold;font-size:14px;font-family:Lato;-inkscape-font-specification:Lato-Bold;writing-mode:lr-tb;fill:#4d4d4d;fill-opacity:1;fill-rule:nonzero;stroke:none;stroke-width:0.9305436"
         id="text52"><path
           style="stroke-width:0.9305436;fill:#4d4d4d"
           d="m 301.37517,41.099133 v -10.122 h 3.486 q 0.994,0 1.701,0.189 0.707,0.189 1.155,0.539 0.455,0.35 0.665,0.847 0.21,0.497 0.21,1.12 0,0.357 -0.105,0.686 -0.105,0.322 -0.329,0.609 -0.217,0.28 -0.56,0.511 -0.336,0.231 -0.805,0.392 2.086,0.469 2.086,2.254 0,0.644 -0.245,1.19 -0.245,0.546 -0.714,0.945 -0.469,0.392 -1.155,0.616 -0.686,0.224 -1.568,0.224 z m 1.883,-4.438 v 2.968 h 1.904 q 0.525,0 0.882,-0.126 0.357,-0.126 0.567,-0.336 0.217,-0.21 0.308,-0.49 0.098,-0.28 0.098,-0.595 0,-0.329 -0.105,-0.588 -0.105,-0.266 -0.329,-0.448 -0.224,-0.189 -0.581,-0.287 -0.35,-0.098 -0.847,-0.098 z m 0,-1.302 h 1.498 q 0.966,0 1.456,-0.35 0.497,-0.35 0.497,-1.113 0,-0.791 -0.448,-1.127 -0.448,-0.336 -1.4,-0.336 h -1.603 z"
           id="path4822" /><path
           style="stroke-width:0.9305436;fill:#4d4d4d"
           d="m 312.47717,41.099133 h -1.89 v -10.122 h 1.89 z"
           id="path4824" /><path
           style="stroke-width:0.9305436;fill:#4d4d4d"
           d="m 324.38416,36.038133 q 0,1.113 -0.371,2.065 -0.364,0.945 -1.036,1.638 -0.672,0.693 -1.617,1.085 -0.945,0.385 -2.1,0.385 -1.148,0 -2.093,-0.385 -0.945,-0.392 -1.624,-1.085 -0.672,-0.693 -1.043,-1.638 -0.371,-0.952 -0.371,-2.065 0,-1.113 0.371,-2.058 0.371,-0.952 1.043,-1.645 0.679,-0.693 1.624,-1.078 0.945,-0.392 2.093,-0.392 0.77,0 1.449,0.182 0.679,0.175 1.246,0.504 0.567,0.322 1.015,0.791 0.455,0.462 0.77,1.036 0.315,0.574 0.476,1.246 0.168,0.672 0.168,1.414 z m -1.925,0 q 0,-0.833 -0.224,-1.491 -0.224,-0.665 -0.637,-1.127 -0.413,-0.462 -1.008,-0.707 -0.588,-0.245 -1.33,-0.245 -0.742,0 -1.337,0.245 -0.588,0.245 -1.008,0.707 -0.413,0.462 -0.637,1.127 -0.224,0.658 -0.224,1.491 0,0.833 0.224,1.498 0.224,0.658 0.637,1.12 0.42,0.455 1.008,0.7 0.595,0.245 1.337,0.245 0.742,0 1.33,-0.245 0.595,-0.245 1.008,-0.7 0.413,-0.462 0.637,-1.12 0.224,-0.665 0.224,-1.498 z"
           id="path4826" /><path
           style="stroke-width:0.9305436;fill:#4d4d4d"
           d="m 335.03117,36.038133 q 0,1.113 -0.371,2.044 -0.371,0.931 -1.043,1.603 -0.672,0.672 -1.617,1.043 -0.945,0.371 -2.1,0.371 h -3.857 v -10.122 h 3.857 q 1.155,0 2.1,0.378 0.945,0.371 1.617,1.043 0.672,0.665 1.043,1.596 0.371,0.931 0.371,2.044 z m -1.932,0 q 0,-0.833 -0.224,-1.491 -0.217,-0.665 -0.637,-1.12 -0.413,-0.462 -1.008,-0.707 -0.588,-0.245 -1.33,-0.245 h -1.967 v 7.126 h 1.967 q 0.742,0 1.33,-0.245 0.595,-0.245 1.008,-0.7 0.42,-0.462 0.637,-1.12 0.224,-0.665 0.224,-1.498 z"
           id="path4828" /><path
           style="stroke-width:0.9305436;fill:#4d4d4d"
           d="m 338.57315,41.099133 h -1.89 v -10.122 h 1.89 z"
           id="path4830" /><path
           style="stroke-width:0.9305436;fill:#4d4d4d"
           d="m 339.62316,30.977133 h 1.512 q 0.245,0 0.399,0.119 0.154,0.119 0.231,0.308 l 2.387,6.174 q 0.119,0.301 0.224,0.665 0.112,0.357 0.21,0.749 0.077,-0.392 0.175,-0.749 0.105,-0.364 0.224,-0.665 l 2.373,-6.174 q 0.056,-0.161 0.217,-0.294 0.168,-0.133 0.406,-0.133 h 1.519 l -4.088,10.122 h -1.701 z"
           id="path4832" /><path
           style="stroke-width:0.9305436;fill:#4d4d4d"
           d="m 356.92717,30.977133 v 1.498 h -4.494 v 2.807 h 3.542 v 1.449 h -3.542 v 2.863 h 4.494 v 1.505 h -6.384 v -10.122 z"
           id="path4834" /><path
           style="stroke-width:0.9305436;fill:#4d4d4d"
           d="m 360.47616,37.144133 v 3.955 h -1.883 v -10.122 h 3.087 q 1.029,0 1.764,0.217 0.742,0.21 1.211,0.595 0.476,0.385 0.7,0.924 0.224,0.532 0.224,1.176 0,0.511 -0.154,0.966 -0.147,0.455 -0.434,0.826 -0.28,0.371 -0.7,0.651 -0.413,0.28 -0.945,0.448 0.357,0.203 0.616,0.581 l 2.534,3.738 h -1.701 q -0.483,0 -0.7,-0.378 l -2.128,-3.241 q -0.119,-0.182 -0.266,-0.259 -0.14,-0.077 -0.42,-0.077 z m 0,-1.351 h 1.176 q 0.532,0 0.924,-0.133 0.399,-0.133 0.651,-0.364 0.259,-0.238 0.385,-0.56 0.126,-0.322 0.126,-0.707 0,-0.77 -0.511,-1.183 -0.504,-0.413 -1.547,-0.413 h -1.204 z"
           id="path4836" /><path
           style="stroke-width:0.9305436;fill:#4d4d4d"
           d="m 372.98517,32.818133 q -0.084,0.147 -0.182,0.217 -0.091,0.063 -0.231,0.063 -0.147,0 -0.322,-0.105 -0.168,-0.112 -0.406,-0.245 -0.238,-0.133 -0.56,-0.238 -0.315,-0.112 -0.749,-0.112 -0.392,0 -0.686,0.098 -0.294,0.091 -0.497,0.259 -0.196,0.168 -0.294,0.406 -0.098,0.231 -0.098,0.511 0,0.357 0.196,0.595 0.203,0.238 0.532,0.406 0.329,0.168 0.749,0.301 0.42,0.133 0.861,0.287 0.441,0.147 0.861,0.35 0.42,0.196 0.749,0.504 0.329,0.301 0.525,0.742 0.203,0.441 0.203,1.071 0,0.686 -0.238,1.288 -0.231,0.595 -0.686,1.043 -0.448,0.441 -1.099,0.7 -0.651,0.252 -1.491,0.252 -0.483,0 -0.952,-0.098 -0.469,-0.091 -0.903,-0.266 -0.427,-0.175 -0.805,-0.42 -0.378,-0.245 -0.672,-0.546 l 0.553,-0.903 q 0.07,-0.098 0.182,-0.161 0.112,-0.07 0.238,-0.07 0.175,0 0.378,0.147 0.203,0.14 0.483,0.315 0.28,0.175 0.651,0.322 0.378,0.14 0.903,0.14 0.805,0 1.246,-0.378 0.441,-0.385 0.441,-1.099 0,-0.399 -0.203,-0.651 -0.196,-0.252 -0.525,-0.42 -0.329,-0.175 -0.749,-0.294 -0.42,-0.119 -0.854,-0.259 -0.434,-0.14 -0.854,-0.336 -0.42,-0.196 -0.749,-0.511 -0.329,-0.315 -0.532,-0.784 -0.196,-0.476 -0.196,-1.169 0,-0.553 0.217,-1.078 0.224,-0.525 0.644,-0.931 0.42,-0.406 1.036,-0.651 0.616,-0.245 1.414,-0.245 0.896,0 1.652,0.28 0.756,0.28 1.288,0.784 z"
           id="path4838" /><path
           style="stroke-width:0.9305436;fill:#4d4d4d"
           d="m 377.15717,41.099133 h -1.89 v -10.122 h 1.89 z"
           id="path4840" /><path
           style="stroke-width:0.9305436;fill:#4d4d4d"
           d="m 386.48115,30.977133 v 1.547 h -3.052 v 8.575 h -1.883 v -8.575 h -3.052 v -1.547 z"
           id="path4842" /><path
           style="stroke-width:0.9305436;fill:#4d4d4d"
           d="m 392.15814,37.179133 v 3.92 h -1.876 v -3.92 l -3.689,-6.202 h 1.659 q 0.245,0 0.385,0.119 0.147,0.119 0.245,0.301 l 1.848,3.381 q 0.161,0.308 0.28,0.574 0.126,0.266 0.224,0.525 0.091,-0.266 0.21,-0.532 0.119,-0.266 0.273,-0.567 l 1.841,-3.381 q 0.077,-0.154 0.231,-0.287 0.154,-0.133 0.392,-0.133 h 1.666 z"
           id="path4844" /></g><g
         aria-label="SCIENCE"
         style="font-variant:normal;font-weight:bold;font-size:14px;font-family:Lato;-inkscape-font-specification:Lato-Bold;writing-mode:lr-tb;fill:#4d4d4d;fill-opacity:1;fill-rule:nonzero;stroke:none;stroke-width:0.9305436"
         id="text56"><path
           style="stroke-width:0.9305436;fill:#4d4d4d"
           d="m 275.82517,50.898123 q -0.084,0.147 -0.182,0.217 -0.091,0.063 -0.231,0.063 -0.147,0 -0.322,-0.105 -0.168,-0.112 -0.406,-0.245 -0.238,-0.133 -0.56,-0.238 -0.315,-0.112 -0.749,-0.112 -0.392,0 -0.686,0.098 -0.294,0.091 -0.497,0.259 -0.196,0.168 -0.294,0.406 -0.098,0.231 -0.098,0.511 0,0.357 0.196,0.595 0.203,0.238 0.532,0.406 0.329,0.168 0.749,0.301 0.42,0.133 0.861,0.287 0.441,0.147 0.861,0.35 0.42,0.196 0.749,0.504 0.329,0.301 0.525,0.742 0.203,0.441 0.203,1.071 0,0.686 -0.238,1.288 -0.231,0.595 -0.686,1.043 -0.448,0.441 -1.099,0.7 -0.651,0.252 -1.491,0.252 -0.483,0 -0.952,-0.098 -0.469,-0.091 -0.903,-0.266 -0.427,-0.175 -0.805,-0.42 -0.378,-0.245 -0.672,-0.546 l 0.553,-0.903 q 0.07,-0.098 0.182,-0.161 0.112,-0.07 0.238,-0.07 0.175,0 0.378,0.147 0.203,0.14 0.483,0.315 0.28,0.175 0.651,0.322 0.378,0.14 0.903,0.14 0.805,0 1.246,-0.378 0.441,-0.385 0.441,-1.099 0,-0.399 -0.203,-0.651 -0.196,-0.252 -0.525,-0.42 -0.329,-0.175 -0.749,-0.294 -0.42,-0.119 -0.854,-0.259 -0.434,-0.14 -0.854,-0.336 -0.42,-0.196 -0.749,-0.511 -0.329,-0.315 -0.532,-0.784 -0.196,-0.476 -0.196,-1.169 0,-0.553 0.217,-1.078 0.224,-0.525 0.644,-0.931 0.42,-0.406 1.036,-0.651 0.616,-0.245 1.414,-0.245 0.896,0 1.652,0.28 0.756,0.28 1.288,0.784 z"
           id="path4847" /><path
           style="stroke-width:0.9305436;fill:#4d4d4d"
           d="m 285.05816,56.792123 q 0.154,0 0.273,0.119 l 0.742,0.805 q -0.616,0.763 -1.519,1.169 -0.896,0.406 -2.156,0.406 -1.127,0 -2.03,-0.385 -0.896,-0.385 -1.533,-1.071 -0.637,-0.686 -0.98,-1.638 -0.336,-0.952 -0.336,-2.079 0,-1.141 0.364,-2.086 0.364,-0.952 1.022,-1.638 0.665,-0.686 1.582,-1.064 0.917,-0.385 2.03,-0.385 1.106,0 1.96,0.364 0.861,0.364 1.463,0.952 l -0.63,0.875 q -0.056,0.084 -0.147,0.147 -0.084,0.063 -0.238,0.063 -0.105,0 -0.217,-0.056 -0.112,-0.063 -0.245,-0.147 -0.133,-0.091 -0.308,-0.196 -0.175,-0.105 -0.406,-0.189 -0.231,-0.091 -0.539,-0.147 -0.301,-0.063 -0.7,-0.063 -0.679,0 -1.246,0.245 -0.56,0.238 -0.966,0.7 -0.406,0.455 -0.63,1.12 -0.224,0.658 -0.224,1.505 0,0.854 0.238,1.519 0.245,0.665 0.658,1.12 0.413,0.455 0.973,0.7 0.56,0.238 1.204,0.238 0.385,0 0.693,-0.042 0.315,-0.042 0.574,-0.133 0.266,-0.091 0.497,-0.231 0.238,-0.147 0.469,-0.357 0.07,-0.063 0.147,-0.098 0.077,-0.042 0.161,-0.042 z"
           id="path4849" /><path
           style="stroke-width:0.9305436;fill:#4d4d4d"
           d="m 289.25116,59.179123 h -1.89 v -10.122 h 1.89 z"
           id="path4851" /><path
           style="stroke-width:0.9305436;fill:#4d4d4d"
           d="m 297.88917,49.057123 v 1.498 h -4.494 v 2.807 h 3.542 v 1.449 h -3.542 v 2.863 h 4.494 v 1.505 h -6.384 v -10.122 z"
           id="path4853" /><path
           style="stroke-width:0.9305436;fill:#4d4d4d"
           d="m 300.54216,49.057123 q 0.119,0 0.203,0.014 0.091,0.007 0.154,0.042 0.07,0.028 0.133,0.091 0.063,0.056 0.14,0.154 l 5.306,6.776 q -0.021,-0.245 -0.035,-0.483 -0.014,-0.238 -0.014,-0.441 v -6.153 h 1.659 v 10.122 h -0.966 q -0.224,0 -0.378,-0.07 -0.147,-0.077 -0.287,-0.252 l -5.285,-6.741 q 0.021,0.224 0.028,0.448 0.014,0.217 0.014,0.399 v 6.216 h -1.659 v -10.122 z"
           id="path4855" /><path
           style="stroke-width:0.9305436;fill:#4d4d4d"
           d="m 317.28616,56.792123 q 0.154,0 0.273,0.119 l 0.742,0.805 q -0.616,0.763 -1.519,1.169 -0.896,0.406 -2.156,0.406 -1.127,0 -2.03,-0.385 -0.896,-0.385 -1.533,-1.071 -0.637,-0.686 -0.98,-1.638 -0.336,-0.952 -0.336,-2.079 0,-1.141 0.364,-2.086 0.364,-0.952 1.022,-1.638 0.665,-0.686 1.582,-1.064 0.917,-0.385 2.03,-0.385 1.106,0 1.96,0.364 0.861,0.364 1.463,0.952 l -0.63,0.875 q -0.056,0.084 -0.147,0.147 -0.084,0.063 -0.238,0.063 -0.105,0 -0.217,-0.056 -0.112,-0.063 -0.245,-0.147 -0.133,-0.091 -0.308,-0.196 -0.175,-0.105 -0.406,-0.189 -0.231,-0.091 -0.539,-0.147 -0.301,-0.063 -0.7,-0.063 -0.679,0 -1.246,0.245 -0.56,0.238 -0.966,0.7 -0.406,0.455 -0.63,1.12 -0.224,0.658 -0.224,1.505 0,0.854 0.238,1.519 0.245,0.665 0.658,1.12 0.413,0.455 0.973,0.7 0.56,0.238 1.204,0.238 0.385,0 0.693,-0.042 0.315,-0.042 0.574,-0.133 0.266,-0.091 0.497,-0.231 0.238,-0.147 0.469,-0.357 0.07,-0.063 0.147,-0.098 0.077,-0.042 0.161,-0.042 z"
           id="path4857" /><path
           style="stroke-width:0.9305436;fill:#4d4d4d"
           d="m 325.97316,49.057123 v 1.498 h -4.494 v 2.807 h 3.542 v 1.449 h -3.542 v 2.863 h 4.494 v 1.505 h -6.384 v -10.122 z"
           id="path4859" /></g></g></g></svg>